<?xml version="1.0" standalone="no"?>
<!DOCTYPE svg PUBLIC "-//W3C//DTD SVG 20010904//EN"
 "http://www.w3.org/TR/2001/REC-SVG-20010904/DTD/svg10.dtd">
<svg version="1.0" xmlns="http://www.w3.org/2000/svg"
 width="700.000000pt" height="700.000000pt" viewBox="0 0 700.000000 700.000000"
 preserveAspectRatio="xMidYMid meet">
<metadata>
Created by potrace 1.11, written by Peter Selinger 2001-2013
</metadata>
<g transform="translate(0.000000,700.000000) scale(0.100000,-0.100000)"
fill="#000000" stroke="none">
<path d="M3279 6696 c-2 -2 -44 -7 -94 -11 -49 -4 -92 -8 -95 -10 -3 -1 -32
-6 -65 -9 -33 -4 -91 -14 -130 -22 -38 -8 -83 -17 -100 -21 -79 -15 -294 -80
-415 -125 -637 -238 -1178 -670 -1556 -1243 -289 -438 -463 -935 -512 -1465
-15 -157 -6 -628 13 -700 2 -8 7 -37 10 -65 4 -27 9 -59 11 -70 2 -11 5 -31 7
-45 14 -87 66 -284 107 -409 110 -336 262 -628 471 -906 129 -172 151 -197
304 -351 340 -344 731 -592 1190 -758 116 -42 348 -108 429 -122 17 -2 38 -7
46 -9 14 -4 27 -6 130 -20 25 -3 55 -8 66 -10 95 -20 549 -28 709 -12 81 8
227 29 295 42 14 3 36 7 50 10 250 47 603 175 845 306 183 99 291 167 430 272
204 154 430 375 598 587 296 373 533 892 617 1350 18 100 41 254 48 330 9 99
9 495 -1 589 -10 100 -36 278 -47 321 -5 19 -12 51 -15 70 -22 128 -109 399
-184 573 -158 369 -366 678 -651 970 -69 71 -156 154 -194 185 -38 31 -75 63
-83 71 -31 30 -230 171 -327 231 -186 117 -424 231 -638 305 -103 36 -293 89
-357 100 -19 3 -37 8 -41 10 -6 3 -42 10 -170 30 -14 2 -52 7 -85 11 -33 3
-69 9 -80 11 -24 6 -530 14 -536 9z m556 -160 c22 -3 54 -8 70 -11 17 -2 48
-7 70 -11 138 -20 421 -89 492 -120 17 -8 36 -14 41 -14 19 0 228 -88 339
-143 308 -151 569 -340 818 -591 374 -376 632 -820 775 -1329 12 -43 23 -86
25 -95 1 -9 8 -35 13 -57 12 -45 38 -195 48 -270 20 -163 22 -223 19 -445 -2
-135 -6 -255 -8 -267 -3 -12 -8 -48 -12 -80 -13 -122 -56 -320 -114 -518 -43
-150 -221 -554 -267 -606 -8 -8 -14 -19 -14 -22 0 -16 -184 -288 -225 -333 -5
-6 -23 -29 -40 -50 -62 -80 -92 -112 -209 -229 -408 -406 -893 -679 -1441
-810 -77 -18 -158 -36 -180 -40 -22 -3 -67 -10 -100 -15 -201 -33 -646 -35
-845 -4 -185 28 -396 77 -550 127 -322 106 -683 304 -960 527 -134 108 -342
315 -450 450 -167 207 -338 491 -435 720 -15 36 -31 74 -36 85 -58 129 -155
491 -175 655 -3 19 -7 46 -9 60 -27 147 -28 655 -1 796 2 11 7 42 10 69 26
193 98 453 188 679 42 107 158 344 189 388 10 14 19 29 19 33 0 13 173 260
249 355 139 174 343 368 576 548 41 32 207 138 285 183 270 155 625 290 879
334 19 3 37 7 40 9 3 2 26 7 51 10 25 3 72 11 105 16 33 6 96 13 140 16 44 4
82 8 84 10 6 6 498 -4 546 -10z"/>
<path d="M1625 5482 c-11 -2 -35 -15 -53 -29 l-34 -25 6 -77 c45 -584 465
-1206 1211 -1790 61 -47 115 -89 120 -93 121 -96 390 -275 530 -353 205 -114
271 -149 430 -226 434 -209 899 -362 1205 -395 36 -4 72 -8 80 -10 8 -1 33 -3
55 -3 l41 -1 89 -136 c95 -144 207 -272 308 -352 105 -83 114 -83 58 0 -46 70
-181 302 -181 312 0 3 -34 64 -75 135 l-74 131 9 52 c19 110 22 137 24 263 9
388 -118 756 -386 1112 -134 179 -396 427 -633 600 -350 255 -866 507 -1355
662 -92 29 -226 68 -263 76 -10 2 -27 7 -37 10 -10 3 -27 8 -37 10 -10 2 -58
12 -108 24 -49 11 -104 22 -121 25 -116 21 -279 46 -334 51 -36 4 -72 9 -81
10 -48 9 -363 22 -394 17z m290 -246 c50 -4 106 -9 125 -11 19 -3 58 -7 85
-10 28 -3 111 -17 185 -30 74 -14 149 -27 165 -30 118 -22 632 -164 736 -203
31 -12 85 -115 133 -257 40 -116 41 -115 62 105 4 36 7 66 8 67 3 4 380 -189
471 -241 231 -134 463 -299 605 -430 377 -351 591 -711 645 -1086 8 -50 15
-220 10 -220 -2 0 -46 64 -98 143 -450 674 -991 1074 -1917 1414 -139 51 -383
133 -386 130 -2 -2 52 -27 119 -57 528 -231 1008 -519 1348 -809 86 -74 364
-353 419 -421 25 -30 51 -61 58 -69 70 -74 389 -531 370 -531 -7 0 -29 4 -48
9 -19 6 -48 12 -65 15 -107 17 -335 76 -510 133 -410 133 -876 379 -1324 700
l-74 53 69 1 c91 1 133 6 231 29 65 15 259 82 270 93 1 2 -84 2 -190 2 -176 0
-370 8 -521 21 -62 5 -53 -1 -221 144 -71 61 -339 333 -405 410 -262 308 -437
638 -484 911 -6 33 -5 36 16 34 13 -2 64 -6 113 -9z"/>
<path d="M4100 2274 c-47 -7 -105 -17 -131 -23 -57 -13 -242 -87 -334 -133
-204 -103 -417 -169 -625 -195 -134 -16 -615 -8 -695 13 -18 4 -18 4 -3 -6 30
-19 338 -91 477 -112 171 -25 373 -27 493 -4 120 23 195 47 371 120 235 98
324 128 452 150 17 3 41 9 55 12 40 10 450 14 515 4 33 -4 83 -11 110 -14 184
-22 613 -113 720 -152 11 -4 17 -4 14 -1 -7 8 -261 110 -369 148 -177 63 -412
132 -525 155 -228 47 -383 58 -525 38z"/>
</g>
</svg>
